# xmcd CD database file
#
# Track frame offsets:
#	150
#	18853
#	39122
#	69530
#
# Disc length: 1555 seconds
#
# Revision: 0
# Processed by: cddbd v1.5.2PL0 Copyright (c) Steve Scherf et al.
# Submitted via: CDex 1.51
#
DISCID=24061104
DTITLE=Alicia Keys - Superwoman
DYEAR=2009
DGENRE=Rhythmic Soul
TTITLE0=Superwoman (radio Version)
TTITLE1=Superwoman (live)
TTITLE2=Teenage Love Affair Part II (fet. ll cool j)
TTITLE3=PC
EXTD=YEAR: 2009
EXTT0=
EXTT1=
EXTT2=
EXTT3=
PLAYORDER=
